<svg viewBox="0 0 24 24" fill="none" xmlns="http://www.w3.org/2000/svg">
<g clip-path="url(#clip0_680_68)">
<path d="M20.7166 10.3391C20.9975 10.1164 21.1553 9.81458 21.1553 9.49989C21.1553 9.18521 20.9975 8.88338 20.7166 8.66073L15.0606 4.18069C14.7792 3.95792 14.3975 3.83276 13.9996 3.83276C13.6016 3.83276 13.22 3.95792 12.9386 4.18069C12.6572 4.40346 12.4991 4.7056 12.4991 5.02064C12.4991 5.33569 12.6572 5.63783 12.9386 5.8606L16.0346 8.31239L4.49959 8.31239C4.10177 8.31239 3.72024 8.43751 3.43893 8.6602C3.15763 8.8829 2.99959 9.18495 2.99959 9.49989C2.99959 9.81484 3.15763 10.1169 3.43893 10.3396C3.72024 10.5623 4.10177 10.6874 4.49959 10.6874L16.0346 10.6874L12.9386 13.1384C12.7993 13.2487 12.6887 13.3796 12.6133 13.5238C12.5379 13.6679 12.4991 13.8224 12.4991 13.9784C12.4991 14.1343 12.5379 14.2888 12.6133 14.4329C12.6887 14.5771 12.7993 14.708 12.9386 14.8183C13.0779 14.9286 13.2433 15.0161 13.4254 15.0758C13.6074 15.1355 13.8025 15.1662 13.9996 15.1662C14.1966 15.1662 14.3918 15.1355 14.5738 15.0758C14.7558 15.0161 14.9213 14.9286 15.0606 14.8183L20.7166 10.3391Z" fill="currentColor"/>
</g>
<defs>
<clipPath id="clip0_680_68">
<rect x="24" width="19" height="24" transform="rotate(90 24 0)" fill="currentColor"/>
</clipPath>
</defs>
</svg>
