<svg viewBox="0 0 51 56" fill="none" xmlns="http://www.w3.org/2000/svg">
<g clip-path="url(#clip0_367_50)">
<path fill-rule="evenodd" clip-rule="evenodd" d="M17.1785 6.06675C17.5228 5.21508 18.2899 4.66675 19.1399 4.66675H36.091C37.6848 4.66675 38.7239 6.51008 38.0099 8.07808L33.1883 18.6667H40.324C42.2365 18.6667 43.1928 21.2054 41.8413 22.6894L16.4412 50.5797C14.8389 52.3391 12.1699 50.5284 12.8882 48.1694L18.3027 30.3334H10.6569C10.2994 30.3334 9.94749 30.2353 9.63325 30.048C9.319 29.8608 9.05234 29.5903 8.85748 29.2611C8.66263 28.9319 8.54575 28.5545 8.51747 28.1632C8.48919 27.7718 8.5504 27.3789 8.69554 27.0201L17.1785 6.06675Z" fill="currentColor"/>
</g>
<defs>
<clipPath id="clip0_367_50">
<rect width="51" height="56" fill="white"/>
</clipPath>
</defs>
</svg>
