<svg viewBox="0 0 30 25" fill="none" xmlns="http://www.w3.org/2000/svg">
<path d="M26.25 9.12215H18.75V3.04072C18.75 2.23427 18.3549 1.46085 17.6516 0.890605C16.9484 0.32036 15.9946 0 15 0C14.0054 0 13.0516 0.32036 12.3484 0.890605C11.6451 1.46085 11.25 2.23427 11.25 3.04072L11.3831 9.12215H3.75C2.75544 9.12215 1.80161 9.44251 1.09835 10.0128C0.395088 10.583 0 11.3564 0 12.1629C0 12.9693 0.395088 13.7427 1.09835 14.313C1.80161 14.8832 2.75544 15.2036 3.75 15.2036L11.3831 15.0956L11.25 21.285C11.25 22.0915 11.6451 22.8649 12.3484 23.4351C13.0516 24.0054 14.0054 24.3257 15 24.3257C15.9946 24.3257 16.9484 24.0054 17.6516 23.4351C18.3549 22.8649 18.75 22.0915 18.75 21.285V15.0956L26.25 15.2036C27.2446 15.2036 28.1984 14.8832 28.9016 14.313C29.6049 13.7427 30 12.9693 30 12.1629C30 11.3564 29.6049 10.583 28.9016 10.0128C28.1984 9.44251 27.2446 9.12215 26.25 9.12215Z" fill="currentColor"/>
</svg>
