<svg viewBox="0 0 88 89" fill="none" xmlns="http://www.w3.org/2000/svg">
<path d="M46.2957 86.6823C46.6057 86.0711 46.6616 85.362 46.4513 84.7097C46.241 84.0574 45.7816 83.5148 45.1732 83.2002C44.4052 82.7895 43.7299 82.2247 43.1897 81.5411C42.6494 80.8575 42.2557 80.0698 42.0332 79.2272C42.1034 77.7893 42.4783 76.3827 43.133 75.1009C43.7877 73.8191 44.7072 72.6913 45.8306 71.7923C47.6047 70.3704 49.0083 68.5396 49.9214 66.4564C50.8346 64.3733 51.2301 62.0997 51.074 59.8302C50.8239 58.3736 50.2361 56.9961 49.3577 55.8081C50.4963 55.2777 51.5516 54.584 52.4902 53.7488C53.2664 53.5384 54.0772 53.4882 54.8734 53.6014C55.6695 53.7145 56.4343 53.9886 57.1213 54.407C58.0981 55.4712 58.8352 56.7329 59.2828 58.1068C59.7303 59.4807 59.8778 60.9349 59.7153 62.3708C59.4666 64.6318 59.7681 66.9194 60.5939 69.0385C61.4198 71.1576 62.7456 73.0453 64.4581 74.5404C66.2126 75.7623 68.3079 76.3982 70.4449 76.3574C71.6862 76.3603 72.9212 76.1812 74.1107 75.826C74.7582 75.6093 75.2936 75.1447 75.5997 74.5338C75.9058 73.923 75.9576 73.2156 75.7439 72.5666C75.5251 71.9201 75.063 71.3845 74.4559 71.0735C73.8488 70.7626 73.1445 70.7009 72.4927 70.9014C71.6592 71.1581 70.7816 71.2385 69.9155 71.1375C69.0493 71.0364 68.2137 70.7561 67.4616 70.3144C66.4941 69.249 65.7646 67.9895 65.3217 66.6198C64.8788 65.25 64.7326 63.8015 64.8929 62.3708C65.1416 60.1098 64.8402 57.8222 64.0143 55.7031C63.1884 53.584 61.8627 51.6964 60.1501 50.2012C58.9417 49.3466 57.5493 48.7883 56.0856 48.5715C56.5213 47.3922 56.7816 46.1553 56.8583 44.9002C57.2591 44.1952 57.801 43.5807 58.4502 43.095C59.0993 42.6094 59.8416 42.2632 60.6306 42.078C62.0674 42.1473 63.4729 42.5221 64.7537 43.1774C66.0344 43.8328 67.161 44.7538 68.0585 45.879C69.3599 47.4179 70.9523 48.6843 72.7442 49.6054C74.5361 50.5265 76.4921 51.0842 78.4999 51.2463C79.0046 51.2464 79.5085 51.2057 80.0067 51.1249C81.6486 50.7623 83.1914 50.0446 84.527 49.0221C85.8625 47.9996 86.9584 46.6971 87.7379 45.2058C88.0362 44.5937 88.0818 43.8886 87.8647 43.243C87.6477 42.5975 87.1854 42.0635 86.578 41.7565C85.9706 41.4495 85.2668 41.3943 84.619 41.6027C83.9712 41.8111 83.4314 42.2664 83.1164 42.8701C82.7067 43.6396 82.1427 44.3162 81.4597 44.8574C80.7767 45.3987 79.9894 45.793 79.1471 46.0156C77.7109 45.9436 76.3064 45.5676 75.026 44.9124C73.7457 44.2572 72.6186 43.3377 71.7193 42.2146C70.3008 40.4373 68.4724 39.0313 66.3912 38.1175C64.3099 37.2037 62.0381 36.8095 59.771 36.9688C58.3153 37.2185 56.9383 37.8066 55.7509 38.6858C55.222 37.5473 54.5301 36.4922 53.697 35.5535C53.4854 34.7757 53.4342 33.963 53.5465 33.1647C53.6589 32.3665 53.9325 31.5995 54.3505 30.9105C55.413 29.9326 56.6731 29.1946 58.0454 28.7467C59.4176 28.2987 60.8701 28.1511 62.3043 28.314C64.5638 28.5639 66.8502 28.2624 68.9679 27.4352C71.0856 26.608 72.9717 25.2798 74.4649 23.564C75.368 22.1454 75.9508 20.5465 76.1726 18.879C76.3944 17.2115 76.2498 15.5156 75.749 13.9099C75.5298 13.2622 75.0638 12.7275 74.4526 12.4221C73.8414 12.1167 73.1344 12.0654 72.4855 12.2793C71.8367 12.4933 71.2985 12.9551 70.9883 13.5643C70.678 14.1736 70.6208 14.8808 70.8291 15.532C71.0828 16.3651 71.1621 17.2417 71.0621 18.1068C70.962 18.972 70.6848 19.8072 70.2476 20.5603C69.1817 21.5286 67.922 22.2586 66.5524 22.7019C65.1828 23.1452 63.7345 23.2916 62.304 23.1314C60.0455 22.8821 57.7604 23.1837 55.6436 24.0104C53.5269 24.8371 51.6415 26.1643 50.1484 27.8787C49.2948 29.0894 48.7368 30.4837 48.5196 31.9495C47.3421 31.5134 46.107 31.2529 44.8538 31.1764C44.1493 30.7758 43.535 30.2339 43.0496 29.5846C42.5642 28.9352 42.2181 28.1925 42.033 27.4029C42.1031 25.9647 42.478 24.5578 43.1326 23.2755C43.7873 21.9933 44.7069 20.865 45.8303 19.9656C47.6044 18.5437 49.0081 16.7129 49.9212 14.6297C50.8343 12.5465 51.2298 10.273 51.0738 8.00345C50.7109 6.36019 49.9933 4.81626 48.9713 3.4799C47.9494 2.14354 46.6478 1.04709 45.1578 0.267408C44.5454 -0.0349575 43.8385 -0.0829529 43.1909 0.133871C42.5433 0.350695 42.0075 0.814785 41.7002 1.42511C41.3928 2.03544 41.3387 2.74258 41.5497 3.39262C41.7607 4.04265 42.2197 4.58294 42.8268 4.89588C43.5949 5.30525 44.2703 5.869 44.8106 6.5518C45.3509 7.23459 45.7445 8.02172 45.9668 8.86387C45.8966 10.3021 45.5218 11.709 44.8671 12.9913C44.2124 14.2735 43.2929 15.4018 42.1694 16.3012C40.3953 17.7231 38.9917 19.5539 38.0786 21.6371C37.1654 23.7203 36.77 25.9938 36.926 28.2634C37.1761 29.7199 37.7639 31.0975 38.6423 32.2854C37.5039 32.8157 36.4488 33.5092 35.5102 34.3441C34.734 34.5553 33.923 34.6059 33.1267 34.4928C32.3303 34.3797 31.5654 34.1054 30.8785 33.6864C29.9017 32.6223 29.1646 31.3606 28.717 29.9867C28.2695 28.6127 28.122 27.1586 28.2845 25.7227C28.5332 23.4625 28.2318 21.1756 27.4059 19.0573C26.58 16.939 25.2542 15.0522 23.5417 13.5581C22.1227 12.6546 20.5242 12.0714 18.8572 11.8489C17.1902 11.6265 15.4949 11.7702 13.889 12.27C13.5665 12.3777 13.2683 12.5479 13.0114 12.7709C12.7546 12.994 12.5442 13.2654 12.3922 13.5699C12.2402 13.8743 12.1496 14.2057 12.1255 14.5452C12.1015 14.8847 12.1445 15.2256 12.252 15.5484C12.3596 15.8713 12.5296 16.1697 12.7525 16.4268C12.9753 16.6839 13.2465 16.8945 13.5506 17.0467C13.8548 17.1988 14.1859 17.2895 14.525 17.3136C14.8642 17.3377 15.2048 17.2946 15.5273 17.1869C16.3541 16.9414 17.222 16.8657 18.0787 16.9644C18.9355 17.0631 19.7635 17.3342 20.5129 17.7614C21.4897 18.825 22.2269 20.0863 22.6744 21.4598C23.122 22.8334 23.2695 24.2871 23.107 25.7227C22.8583 27.9836 23.1597 30.2712 23.9856 32.3903C24.8115 34.5094 26.1372 36.3971 27.8498 37.8923C29.0578 38.7477 30.4493 39.3078 31.9126 39.5276C31.478 40.7053 31.2182 41.9404 31.1415 43.1935C30.7407 43.8985 30.1988 44.513 29.5497 44.9986C28.9006 45.4841 28.1584 45.8303 27.3694 46.0154C25.9338 45.9407 24.5302 45.5634 23.2502 44.9085C21.9703 44.2535 20.8428 43.3355 19.9416 42.2145C18.5235 40.4368 16.6951 39.0305 14.6138 38.1167C12.5324 37.2029 10.2605 36.8089 7.99333 36.9686C6.35139 37.3312 4.80858 38.0489 3.47303 39.0714C2.13749 40.0939 1.04156 41.3964 0.262079 42.8877C-0.0362492 43.4998 -0.0818048 44.2049 0.13527 44.8504C0.352344 45.4959 0.814594 46.03 1.42201 46.337C2.02943 46.6439 2.73318 46.6992 3.381 46.4908C4.02882 46.2824 4.56862 45.8271 4.88363 45.2234C5.29332 44.4539 5.85733 43.7773 6.54033 43.236C7.22333 42.6948 8.01061 42.3005 8.85289 42.0779C10.2894 42.1482 11.6946 42.5235 12.9752 43.1788C14.2558 43.8341 15.3826 44.7545 16.2807 45.8788C17.5822 47.4178 19.1746 48.6842 20.9665 49.6053C22.7583 50.5264 24.7144 51.084 26.7222 51.2462C28.7151 51.2504 30.6552 50.605 32.2491 49.4077C32.778 50.5461 33.4699 51.6013 34.303 52.5399C34.5146 53.3177 34.5658 54.1305 34.4535 54.9288C34.3411 55.727 34.0675 56.494 33.6495 57.183C32.587 58.1609 31.3269 58.8988 29.9546 59.3468C28.5824 59.7948 27.1299 59.9424 25.6957 59.7795C23.4362 59.5295 21.1498 59.8311 19.0321 60.6583C16.9144 61.4854 15.0283 62.8137 13.5351 64.5294C12.6319 65.9486 12.0491 67.5479 11.8273 69.2158C11.6054 70.8837 11.75 72.58 12.2508 74.1862C12.4224 74.6997 12.7511 75.1462 13.1903 75.4623C13.6296 75.7784 14.1571 75.9482 14.6981 75.9474C14.9727 75.9475 15.2456 75.9048 15.5071 75.8209C16.1566 75.607 16.6956 75.1452 17.007 74.5359C17.3185 73.9267 17.3773 73.219 17.1707 72.5666C16.917 71.7324 16.8381 70.8548 16.939 69.9886C17.0399 69.1225 17.3185 68.2866 17.7572 67.5332C18.8219 66.5647 20.0807 65.8344 21.4495 65.391C22.8184 64.9477 24.266 64.8015 25.6957 64.9621C27.9542 65.2114 30.2394 64.9098 32.3561 64.0831C34.4729 63.2564 36.3583 61.9292 37.8513 60.2148C38.705 59.0042 39.2629 57.6099 39.4801 56.1441C40.6576 56.5801 41.8928 56.8406 43.146 56.9172C43.8505 57.3177 44.4647 57.8596 44.9501 58.509C45.4355 59.1583 45.7817 59.901 45.9668 60.6906C45.8966 62.1289 45.5218 63.5358 44.8671 64.818C44.2124 66.1002 43.2929 67.2285 42.1694 68.128C40.3958 69.5496 38.9924 71.38 38.0793 73.4627C37.1662 75.5454 36.7705 77.8185 36.926 80.0875C37.289 81.7311 38.0066 83.2753 39.0285 84.612C40.0505 85.9488 41.352 87.0458 42.842 87.8261C43.1994 88.0069 43.5945 88.1005 43.9949 88.0994C44.4718 88.0988 44.9391 87.966 45.3452 87.7159C45.7513 87.4658 46.0803 87.108 46.2957 86.6823ZM36.2335 44.0469C36.2335 42.5093 36.689 41.0063 37.5424 39.7279C38.3958 38.4495 39.6088 37.453 41.028 36.8646C42.4471 36.2763 44.0087 36.1223 45.5153 36.4223C47.0219 36.7222 48.4058 37.4626 49.492 38.5498C50.5781 39.637 51.3178 41.0222 51.6175 42.5302C51.9172 44.0382 51.7634 45.6013 51.1755 47.0218C50.5877 48.4423 49.5922 49.6565 48.315 50.5107C47.0378 51.3649 45.5362 51.8208 44.0001 51.8208C41.941 51.8186 39.9668 50.9988 38.5108 49.5414C37.0548 48.084 36.2358 46.108 36.2335 44.0469Z" fill="currentColor"/>
</svg>
