<svg xmlns="http://www.w3.org/2000/svg" xmlns:xlink="http://www.w3.org/1999/xlink" viewBox="0 0 98 34" width="100%" height="100%"><path d="M 71.319 15.085 L 66.183 15.085 L 66.183 17.644 L 68.751 17.644 L 68.751 24.042 L 67.467 24.042 L 67.467 25.322 L 66.183 25.322 L 66.183 26.602 L 73.887 26.602 L 73.887 25.322 L 72.603 25.322 L 72.603 24.042 L 71.319 24.042 L 71.319 22.763 L 72.603 22.763 L 72.603 21.483 L 71.319 21.483 L 71.319 20.203 L 72.603 20.203 L 72.603 17.644 L 73.887 17.644 L 73.887 16.364 L 76.455 16.364 L 76.455 25.322 L 75.171 25.322 L 75.171 26.602 L 82.876 26.602 L 82.876 25.322 L 80.308 25.322 L 80.308 16.364 L 79.023 16.364 L 79.023 15.085 L 72.603 15.085 L 72.603 16.364 L 71.319 16.364 Z" fill="rgb(246,29,91)"/><path d="M 82.876 16.364 L 82.876 15.085 L 89.296 15.085 L 89.296 16.364 L 88.012 16.364 L 88.012 18.924 L 89.296 18.924 L 89.296 20.203 L 90.58 20.203 L 90.58 22.763 L 91.864 22.763 L 91.864 20.203 L 93.148 20.203 L 93.148 16.364 L 91.864 16.364 L 91.864 15.085 L 97 15.085 L 97 16.364 L 95.716 16.364 L 95.716 18.924 L 94.432 18.924 L 94.432 21.483 L 93.148 21.483 L 93.148 24.042 L 91.864 24.042 L 91.864 26.602 L 90.58 26.602 L 90.58 29.161 L 89.296 29.161 L 89.296 31.72 L 88.012 31.72 L 88.012 33 L 84.16 33 L 84.16 30.441 L 86.728 30.441 L 86.728 29.161 L 88.012 29.161 L 88.012 27.881 L 89.296 27.881 L 89.296 25.322 L 88.012 25.322 L 88.012 22.763 L 86.728 22.763 L 86.728 20.203 L 85.444 20.203 L 85.444 18.924 L 84.16 18.924 L 84.16 16.364 Z" fill="rgb(246,29,91)"/><path d="M 49.648 15.085 L 47.084 15.085 L 47.084 16.361 L 49.648 16.361 L 49.648 26.578 L 56.056 26.578 L 56.056 25.3 L 57.338 25.3 L 57.338 24.023 L 54.775 24.023 L 54.775 25.3 L 53.493 25.3 L 53.493 24.023 L 52.211 24.023 L 52.211 22.747 L 53.493 22.747 L 53.493 18.916 L 52.211 18.916 L 52.211 16.361 L 57.338 16.361 L 57.338 15.085 L 52.211 15.085 L 52.211 13.807 L 53.493 13.807 L 53.493 11.254 L 50.93 11.254 L 50.93 13.807 L 49.648 13.807 Z" fill="rgb(246,29,91)"/><path d="M 59.892 11.254 L 59.892 7.423 L 63.723 7.423 L 63.723 11.254 Z" fill="rgb(246,29,91)"/><path d="M 58.615 15.085 L 63.723 15.085 L 63.723 25.3 L 65 25.3 L 65 26.578 L 57.338 26.578 L 57.338 25.3 L 59.892 25.3 L 59.892 17.639 L 57.338 17.639 L 57.338 16.361 L 58.615 16.361 Z" fill="rgb(246,29,91)"/><path d="M 1 24.02 L 3.568 24.02 L 3.568 25.299 L 7.42 25.299 L 7.42 24.02 L 8.704 24.02 L 8.704 11.231 L 9.988 11.231 L 9.988 8.673 L 8.704 8.673 L 8.704 7.394 L 6.136 7.394 L 6.136 8.673 L 4.852 8.673 L 4.852 9.952 L 3.568 9.952 L 3.568 11.231 L 7.42 11.231 L 7.42 13.789 L 6.136 13.789 L 6.136 15.068 L 3.568 15.068 L 3.568 13.789 L 2.284 13.789 L 2.284 8.673 L 3.568 8.673 L 3.568 7.394 L 4.852 7.394 L 4.852 6.115 L 12.556 6.115 L 12.556 7.394 L 13.84 7.394 L 13.84 8.673 L 15.124 8.673 L 15.124 11.231 L 16.409 11.231 L 16.409 13.789 L 17.692 13.789 L 17.692 15.068 L 18.977 15.068 L 18.977 12.51 L 20.261 12.51 L 20.261 11.231 L 21.545 11.231 L 21.545 8.673 L 22.829 8.673 L 22.829 6.115 L 24.113 6.115 L 24.113 4.837 L 25.397 4.837 L 25.397 2.279 L 27.965 2.279 L 27.965 1 L 30.533 1 L 30.533 2.279 L 31.817 2.279 L 31.817 3.558 L 29.249 3.558 L 29.249 2.279 L 27.965 2.279 L 27.965 3.558 L 26.681 3.558 L 26.681 18.904 L 27.965 18.904 L 27.965 25.299 L 29.249 25.299 L 29.249 26.578 L 24.113 26.578 L 24.113 25.299 L 22.829 25.299 L 22.829 12.51 L 21.545 12.51 L 21.545 13.789 L 20.261 13.789 L 20.261 16.346 L 18.977 16.346 L 18.977 18.904 L 17.692 18.904 L 17.692 21.462 L 15.124 21.462 L 15.124 18.904 L 13.84 18.904 L 13.84 16.346 L 12.556 16.346 L 12.556 12.51 L 11.272 12.51 L 11.272 20.183 L 9.988 20.183 L 9.988 24.02 L 8.704 24.02 L 8.704 25.299 L 7.42 25.299 L 7.42 26.578 L 2.284 26.578 L 2.284 25.299 L 1 25.299 Z" fill="rgb(246,29,91)"/><path d="M 30.352 15.085 L 35.501 15.085 L 35.501 24.023 L 36.788 24.023 L 36.788 25.3 L 39.362 25.3 L 39.362 24.023 L 40.649 24.023 L 40.649 16.361 L 38.075 16.361 L 38.075 15.085 L 44.51 15.085 L 44.51 25.3 L 47.084 25.3 L 47.084 26.578 L 40.649 26.578 L 40.649 25.3 L 39.362 25.3 L 39.362 26.578 L 32.926 26.578 L 32.926 24.023 L 31.639 24.023 L 31.639 18.916 L 32.926 18.916 L 32.926 17.639 L 31.639 17.639 L 31.639 16.361 L 30.352 16.361 Z" fill="rgb(246,29,91)"/></svg>