<svg xmlns="http://www.w3.org/2000/svg" width="1em" height="1em" viewBox="0 0 24 24"><g fill="none" stroke="currentColor" stroke-linecap="round" stroke-linejoin="round" stroke-width="1.5" color="currentColor"><path d="M12 9a6.5 6.5 0 1 0 0 13a6.5 6.5 0 0 0 0-13m8-7l-3.976 3.615c-.717.651-1.075.977-1.497.95c-.422-.026-.737-.393-1.367-1.129l-.507-.59c-.549-.641-.823-.961-1.199-1.013s-.727.182-1.429.65L4 8.5M20 2h-3.5M20 2v3"/><path d="M10.438 18.167v-5.334m1.562 0V11.5m0 8v-1.333M10.438 15.5h3.124m0 0c.518 0 .938.448.938 1v.667c0 .552-.42 1-.937 1H9.5m4.063-2.667c.517 0 .937-.448.937-1v-.667c0-.552-.42-1-.937-1H9.5"/></g></svg>