<svg xmlns="http://www.w3.org/2000/svg" width="1em" height="1em" viewBox="0 0 32 32"><g fill="currentColor"><path d="M14.58 13.534c.42.224.906.345 1.43.345c.523 0 1.009-.121 1.41-.345c.14-.066.29.093.206.224a1.937 1.937 0 0 1-1.626.888c-.682 0-1.28-.355-1.626-.888c-.084-.14.066-.3.206-.224m.618 15.092a1 1 0 0 0 1.604 0l2.99-4.017a1 1 0 0 0-.802-1.597h-5.98a1 1 0 0 0-.802 1.597z"/><path d="m20.8 4.12l.42.21c.77.38 1.19 1.23 1.03 2.08l-.433 2.359a2.249 2.249 0 0 1-.337 4.11l-.057 1.146v.014l-.002.01c-.046.47-.153.917-.32 1.324h.714c.527 0 .839.453.798.884C26.964 18.36 30 22.815 30 28.022V30h-2v-.742c0-3.906-1.498-7.518-4-10.228V30H8V19.03c-2.501 2.71-4 6.322-4 10.228V30H2v-1.978c0-5.193 3.02-9.639 7.353-11.748c-.05-.437.263-.901.797-.901h.729a4.595 4.595 0 0 1-.32-1.34l-.042-1.155a2.25 2.25 0 0 1-.297-4.129L9.79 6.41c-.16-.85.27-1.7 1.04-2.08l.42-.2c.29-.15.56-.35.8-.58l1-1c.56-.57 1.43-.71 2.15-.35c.53.19 1.11.19 1.64 0a2.25 2.25 0 0 1 2.34.53l.82.81c.23.24.5.43.8.58M14.17 17.5c.235.53.692.938 1.253 1.107a1.604 1.604 0 0 1 1.154 0A2.005 2.005 0 0 0 17.83 17.5zm-3.68-7.741a1.249 1.249 0 0 0 .584 2.229a.5.5 0 0 1 .43.477l.054 1.517c.079.774.361 1.403.774 1.834c.41.428.972.684 1.669.684h4c.694 0 1.25-.259 1.657-.69c.41-.434.69-1.07.768-1.847l.075-1.506a.5.5 0 0 1 .429-.47a1.25 1.25 0 0 0 .607-2.209a.675.675 0 0 1-.416.218l-.032.55v.002l-.041.727c-.29.049-.6.016-.893.016c-.38 0-.73.167-1.07.316a1.743 1.743 0 0 1-1.39 0c-.319-.139-.643-.293-.994-.314l.274.92c.114.388-.165.787-.556.787h-.836c-.392 0-.67-.399-.557-.787l.276-.922h-.01c-.38 0-.73.167-1.07.316a1.743 1.743 0 0 1-.695.143c-.273 0-.527-.07-.775-.178c-.319-.14-.644-.281-.99-.281h-.616c-.068 0-.136-.006-.201-.018c-.027-.428-.05-.855-.07-1.283a.652.652 0 0 1-.386-.231M20.7 8.436v-.01c.017-.25.023-.495.017-.733l-.048-.043c-.25-.23-.39-.55-.39-.88v-.85c0-.24-.16-.45-.4-.51c-.63-.16-2-.41-3.88-.41s-3.21.25-3.84.41c-.24.06-.4.27-.4.51v.85c0 .34-.14.66-.39.88l-.03.026c-.005.243.001.494.019.75v.017l.02.557c.455-.002.855-.259 1.227-.49a1.749 1.749 0 0 1 1.783-.033c.426.242.866.523 1.356.523h.425c.49 0 .93-.28 1.356-.523a1.742 1.742 0 0 1 1.757.018c.394.236.812.505 1.287.505h.102zM12.224 10.4c-.048.172.096.344.268.344h.833a.513.513 0 0 1-.06-.25a.54.54 0 0 1 .076-.278a.17.17 0 1 0 .255-.22a.543.543 0 0 1 .749.498c0 .09-.02.17-.07.25h.466c.143 0 .258-.133.23-.268a1.408 1.408 0 0 0-2.747-.077m7.561 0a1.407 1.407 0 0 0-1.368-1.062c-.69 0-1.254.488-1.388 1.139c-.029.133.086.267.23.267h.47a.553.553 0 0 1-.07-.25a.54.54 0 0 1 .093-.304a.17.17 0 1 0 .259-.202a.538.538 0 0 1 .729.507c0 .09-.02.18-.06.25h.837c.173 0 .316-.173.268-.345m-9.643 6.714c-.396.292-.777.602-1.142.93V30h14V18.043a15.2 15.2 0 0 0-1.158-.942c-.051.032-.106.053-.157.083l-3.166 1.846a5 5 0 0 1-1.036.457a1.607 1.607 0 1 1-2.966 0a5 5 0 0 1-1.036-.457l-3.166-1.846a.635.635 0 0 1-.131-.102zm5.251 2.994a.607.607 0 1 0 1.214 0a.607.607 0 0 0-1.214 0"/></g></svg>